<svg xmlns="http://www.w3.org/2000/svg" viewBox="0 0 266 48" aria-label="arcanist">
  <defs>
    <linearGradient id="brandmark-grad" x1="0%" x2="100%" y1="0%" y2="100%">
      <stop offset="0%" stop-color="#cba6f7"/>
      <stop offset="50%" stop-color="#89b4fa"/>
      <stop offset="100%" stop-color="#5e5086"/>
    </linearGradient>
  </defs>
  <g fill="url(#brandmark-grad)">
    <path d="M5 48L20 0H24L39 48H35L31 36H13L9 48H5ZM14 32H30L22 6L14 32Z" fill-rule="evenodd"/>
    <g transform="translate(44,0)">
      <path d="M0 0H26C32 0 36 5 36 12C36 18 33 22 29 23.5L37 48H33L25 24H4V48H0V0ZM4 20H25C30 20 32 16 32 12C32 7 29 4 25 4H4V20Z" fill-rule="evenodd"/>
    </g>
    <g transform="translate(86,0)">
      <path d="M30 4H14C9 4 6 9 6 16V32C6 39 9 44 14 44H30V48H14C7 48 2 41 2 32V16C2 7 7 0 14 0H30V4Z"/>
    </g>
    <g transform="translate(118,0)">
      <path d="M5 48L20 0H24L39 48H35L31 36H13L9 48H5ZM14 32H30L22 6L14 32Z" fill-rule="evenodd"/>
    </g>
    <g transform="translate(160,0)">
      <path d="M0 0H4V8L32 0H36V48H32V6L4 14V48H0V0Z"/>
    </g>
    <g transform="translate(200,0)">
      <rect height="48" width="4" x="0" y="0"/>
    </g>
    <g transform="translate(210,0)">
      <path d="M28 4H4V20H20C27 20 30 24 30 30V36C30 43 27 48 20 48H0V44H20C24 44 26 40 26 36V30C26 26 24 24 20 24H4C1 24 0 21 0 18V12C0 5 3 0 8 0H28V4Z"/>
    </g>
    <g transform="translate(244,0)">
      <path d="M4 0H22V4H15V48H11V4H4V0Z"/>
    </g>
  </g>
</svg>
