<?xml version="1.0" encoding="utf-8"?>
<!DOCTYPE svg PUBLIC "-//W3C//DTD SVG 1.0//EN" "http://www.w3.org/TR/2001/REC-SVG-20010904/DTD/svg10.dtd">
<svg version="1.0" xmlns="http://www.w3.org/2000/svg" viewBox="0 0 358 358" preserveAspectRatio="xMidYMid meet">
 <g fill="#14171f">
  <path d="M64.68 356.74 c-4.79 -1.71 -13.15 -5.94 -17.97 -9.02 -15.63 -10.03 -27.76 -23.98 -34.82 -40.07 -5.14 -11.68 -7.80 -23.32 -8.74 -38.28 -0.45 -7.45 -0.45 -178.90 0 -184.42 2.38 -28.14 13.04 -49.40 33 -65.73 9.40 -7.66 22.55 -14.37 34.40 -17.52 6.57 -1.78 0.84 -1.68 106.04 -1.71 l98.42 0 4.89 1.19 c11.33 2.80 21.05 7.03 30.03 13.01 5.28 3.53 8.78 6.40 13.25 10.84 14.65 14.65 23.21 33.11 26.22 56.43 0.28 2.20 0.63 5.35 0.73 6.99 0.35 4.96 0.49 173.72 0.14 181.52 -0.45 10.49 -1.50 17.10 -4.30 26.78 -3.08 10.63 -8.71 21.57 -15.91 30.84 -2.97 3.88 -9.12 10.21 -13.32 13.70 -6.96 5.87 -17.34 11.99 -26.08 15.45 l-3.18 1.26 -109.74 -0.03 -109.74 0 -3.32 -1.22z m198.40 -4.02 c6.29 -0.59 8.81 -0.94 9.47 -1.29 0.35 -0.21 1.85 -0.66 3.29 -0.98 3.81 -0.87 8.04 -2.27 12.41 -4.13 18.46 -7.83 33.70 -22.10 42.58 -39.93 4.82 -9.68 7.62 -19.51 8.98 -31.78 0.49 -4.37 0.45 -178.55 0 -184.24 -2.06 -24.09 -9.61 -42.37 -23.21 -56.43 -12.94 -13.32 -29.58 -21.47 -50.55 -24.75 -3.78 -0.59 -8.95 -0.63 -90.02 -0.63 -69.36 0 -86.56 0.10 -88.98 0.45 -7.59 1.19 -19.68 4.37 -21.01 5.52 -0.28 0.28 -0.84 0.49 -1.15 0.49 -0.35 0 -1.22 0.28 -1.92 0.63 -0.70 0.35 -3.08 1.54 -5.28 2.62 -12.83 6.29 -25.14 17.66 -32.83 30.45 -5.42 8.95 -9.33 20.66 -11.12 33.07 -0.59 4.09 -0.63 9.89 -0.63 95.62 0 96.39 -0.03 93.31 1.57 102.96 3.11 18.32 10.24 32.69 22.79 45.87 8.43 8.85 21.61 17.27 33.53 21.50 7.10 2.52 16.54 4.54 23.74 5.10 3.53 0.28 165.44 0.14 168.34 -0.14z"/>
  <path d="M91.25 343.81 c-15.66 -1.99 -30.21 -8.04 -41.78 -17.38 -3.71 -2.97 -9.89 -9.44 -13.01 -13.53 -6.50 -8.64 -11.08 -19.30 -13.46 -31.46 l-0.80 -4.02 -0.10 -95.62 c-0.07 -67.02 0 -96.67 0.28 -99.11 1.89 -17.41 9.68 -33.74 21.40 -44.75 10.66 -10.03 23.56 -16.26 40.31 -19.47 l4.20 -0.80 87.93 0 c83.80 0 88.10 0.03 91.77 0.63 17.69 2.97 31.71 9.93 42.48 21.08 12.34 12.76 18.77 28.42 20.94 50.83 0.24 2.34 0.38 36.25 0.42 94.22 0.07 82.61 0.03 90.86 -0.49 94.32 -2.80 18.28 -9.40 31.78 -21.50 43.84 -11.54 11.57 -27.13 18.91 -44.92 21.26 -3.64 0.45 -14.33 0.52 -87.05 0.49 -67.19 -0.03 -83.63 -0.14 -86.60 -0.52z m101.35 -11.99 c24.86 -13.43 40.48 -18.32 66.81 -21.01 16.68 -1.71 24.16 -3.50 33.11 -7.87 12.27 -6.01 22.10 -17.10 26.29 -29.72 2.06 -6.19 2.83 -10.38 3.08 -16.43 0.24 -6.61 0.31 -6.33 -6.29 -19.65 -5.84 -11.71 -8.18 -17.41 -9.82 -23.95 -1.64 -6.43 -2.06 -10.77 -1.89 -18.49 0.24 -8.78 1.68 -15.35 5 -22.62 1.12 -2.48 1.15 -2.62 0.31 -1.64 -3.57 4.16 -6.85 10.03 -8.53 15.24 -2.69 8.22 -3.88 21.47 -2.80 30.73 0.21 1.82 1.57 10.31 3.01 18.84 3.08 18.60 3.43 21.64 3.18 27.13 -0.45 8.64 -2.66 14.16 -7.87 19.51 -4.86 4.96 -10.66 8.18 -18.56 10.24 -4.61 1.19 -8.18 1.71 -18.74 2.76 -31.29 3.08 -45.80 7.62 -69.57 21.85 -11.05 6.61 -16.08 9.40 -25.17 13.88 l-8.04 3.95 15.70 0 15.70 0 5.10 -2.76z m66.22 2.38 c21.64 -1.89 40.59 -12.66 51.88 -29.44 1.19 -1.75 2.10 -3.25 2.03 -3.32 -0.07 -0.10 -0.98 0.59 -1.99 1.47 -3.22 2.83 -8.01 6.05 -12.17 8.22 -9.47 4.86 -18.32 7.10 -34.79 8.78 -17.76 1.82 -27.48 3.67 -38 7.31 -4.58 1.61 -10.80 4.20 -14.44 6.08 l-2.45 1.26 22.83 0.03 c13.49 0 24.58 -0.14 27.09 -0.38z m-137.78 -0.49 c19.58 -2.06 33.84 -7.80 62.86 -25.28 15.52 -9.33 27.27 -14.47 40.76 -17.87 9.02 -2.24 15.94 -3.32 31.22 -4.93 14.16 -1.47 18.56 -2.38 24.37 -5.07 7.62 -3.50 12.48 -9.19 13.91 -16.33 0.73 -3.57 0.73 -7.38 0 -8.11 -0.49 -0.49 -6.96 -0.56 -66.08 -0.56 -44.30 0 -65.80 -0.10 -66.25 -0.35 -1.15 -0.63 -1.82 -2.38 -1.64 -4.47 0.14 -1.64 0.35 -2.10 1.29 -2.94 l1.08 -0.98 65.20 0 c35.87 0 65.20 -0.10 65.20 -0.24 -0.03 -0.17 -0.45 -2.80 -0.98 -5.87 l-0.98 -5.59 -51.85 -0.17 -51.85 -0.17 -1.01 -1.15 c-0.91 -1.01 -1.01 -1.36 -1.01 -3.50 0 -1.61 0.17 -2.62 0.56 -3.18 1.33 -1.85 -1.01 -1.78 53.32 -1.78 l50.38 0 -0.21 -1.12 c-0.10 -0.63 -0.35 -2.87 -0.56 -5 -0.21 -2.10 -0.45 -4.37 -0.56 -5 l-0.17 -1.12 -111.91 0.07 -111.91 0.10 -0.94 2.45 c-0.98 2.59 -2.52 5.66 -4.02 8.15 l-0.91 1.47 21.26 0 c19.54 0 21.36 0.03 22.48 0.63 1.75 0.84 2.52 2.55 2.34 5.10 -0.10 1.78 -0.28 2.20 -1.22 3.04 l-1.12 1.01 -27.55 0 -27.51 0 -5.03 5.87 -5 5.84 51.18 0.17 c39.16 0.14 51.32 0.28 51.88 0.59 1.75 1.01 2.10 5.66 0.52 7.20 l-0.77 0.77 -53.73 0.17 -53.73 0.17 -0.10 6.47 c-0.31 21.26 6.08 37.65 20.21 51.78 10.77 10.77 24.40 17.27 41.25 19.72 4.34 0.63 21.40 0.63 27.34 0z m-87.54 -97.72 l0.80 -1.05 -0.91 0 c-0.73 0 -0.87 0.17 -0.87 1.05 0 0.59 0.03 1.05 0.10 1.05 0.07 0 0.45 -0.45 0.87 -1.05z m288.43 -53.35 l-0.10 -15.28 -1.99 3.64 c-2.45 4.54 -4.79 10.49 -6.08 15.52 -0.94 3.53 -1.01 4.34 -0.98 9.79 0 4.79 0.17 6.68 0.80 9.61 1.33 6.19 3.15 11.40 6.43 18.32 l1.82 3.85 0.10 -15.07 c0.03 -8.29 0.03 -21.96 0 -30.38z m-285.81 39.40 c4.30 -4.82 7.34 -14.09 7.34 -22.41 -0.03 -6.75 -1.61 -11.64 -7.80 -23.98 l-3.50 -6.96 0.17 28.14 c0.07 15.49 0.14 28.18 0.17 28.25 0.03 0.31 2.24 -1.54 3.60 -3.04z m15.59 -5.31 c5 -8.36 6.33 -17.03 4.09 -26.71 -0.91 -4.02 -1.92 -7.10 -7.52 -23.25 -2.80 -8.11 -3.74 -12.06 -4.27 -18.25 -0.98 -11.85 1.50 -20.66 7.69 -27.27 3.01 -3.22 5.70 -5.21 9.65 -7.20 7.66 -3.81 14.09 -5.17 32.34 -6.89 16.12 -1.50 23.49 -2.66 33.21 -5.10 17.90 -4.54 30.03 -10.66 49.47 -25.03 11.82 -8.71 19.86 -13.63 28.14 -17.17 15.10 -6.47 28.60 -8.85 47.20 -8.36 16.68 0.49 28.56 3.04 41.85 9.09 10.10 4.58 18.04 10.42 23.77 17.48 1.19 1.54 2.20 2.69 2.20 2.62 0 -0.10 -0.52 -2.13 -1.19 -4.51 -5.24 -19.16 -16.01 -32.83 -32.16 -40.94 -13.04 -6.54 -28 -8.95 -49.85 -8.01 -14.93 0.63 -23.39 2.52 -36.43 8.11 -11.26 4.82 -20.87 11.08 -34.33 22.41 -14.23 11.96 -21.57 17.06 -31.46 21.96 -12.97 6.40 -22.79 8.78 -47.58 11.54 -21.40 2.38 -32.48 5.52 -40.48 11.57 -9.12 6.89 -15.28 22.31 -13.88 34.86 0.94 8.43 3.01 14.23 11.78 32.93 5.91 12.59 7.24 16.26 8.11 22.83 1.08 7.94 -0.21 18.60 -3.11 25.84 l-1.05 2.55 1.19 -1.40 c0.66 -0.73 1.85 -2.41 2.62 -3.71z m133.59 -14.23 c0 -0.52 -2.80 -1.40 -18.07 -5.59 -9.96 -2.73 -23.84 -6.54 -30.87 -8.46 -26.99 -7.45 -58.31 -16.29 -71.29 -20.14 -3.53 -1.05 -6.47 -1.89 -6.50 -1.82 -0.07 0.07 1.12 3.81 2.62 8.32 3.85 11.47 4.61 15.14 4.82 22.48 l0.14 5.84 59.57 0 c57.02 0 59.57 -0.03 59.57 -0.63z m103.27 -0.14 c1.40 -6.78 -1.33 -16.78 -6.78 -24.96 -2.41 -3.60 -8.53 -9.68 -12.06 -11.99 -5.59 -3.64 -11.19 -5.94 -18.14 -7.45 -5.10 -1.08 -14.96 -1.12 -20 0 -10.28 2.24 -18.42 6.43 -24.79 12.83 -5.38 5.35 -9.02 11.89 -11.01 19.68 -0.80 3.11 -1.26 8.64 -0.91 11.01 l0.24 1.64 46.64 0 46.67 0 0.14 -0.77z m-100.69 -20.07 l0.84 -2.55 -7.90 -4.61 c-23.70 -13.88 -54.61 -31.78 -71.22 -41.32 -16.33 -9.37 -19.75 -11.26 -23.60 -13.15 -3.43 -1.68 -4.27 -1.96 -5.94 -1.92 -2.27 0 -6.92 1.08 -7.73 1.75 -0.28 0.28 -0.91 0.49 -1.36 0.49 -1.26 0 -6.12 2.52 -8.88 4.61 -4.23 3.18 -7.31 7.94 -8.46 13.08 -0.73 3.43 -0.52 9.51 0.56 13.74 0.38 1.64 0.77 3.01 0.80 3.04 0.31 0.31 53.53 15.42 80.48 22.86 10.59 2.94 26.15 7.24 34.61 9.58 l15.38 4.23 0.77 -3.64 c0.42 -1.99 1.15 -4.79 1.64 -6.19z m106.39 -6.33 c2.13 -5.17 6.71 -11.54 11.89 -16.57 5.84 -5.70 9.37 -7.94 13.43 -8.53 0.87 -0.14 1.78 -0.35 1.99 -0.49 0.31 -0.17 0.42 -4.65 0.35 -17.80 l-0.10 -17.55 -6.99 7.80 c-3.85 4.27 -11.64 12.97 -17.34 19.30 -5.70 6.36 -11.82 13.15 -13.60 15.14 l-3.25 3.60 3.36 3.39 c3.71 3.71 6.22 6.99 8.22 10.63 0.70 1.29 1.33 2.38 1.40 2.38 0.07 0 0.35 -0.59 0.66 -1.29z m-99.60 -7.06 c0.80 -1.12 2.59 -3.25 3.95 -4.72 2.27 -2.41 2.45 -2.73 1.99 -3.29 -0.28 -0.31 -3.25 -3.81 -6.57 -7.76 -3.36 -3.95 -7.13 -8.36 -8.39 -9.79 -4.06 -4.58 -32.34 -37.69 -33.39 -39.05 -0.28 -0.38 -1.29 -0.10 -5.24 1.47 -11.50 4.61 -25.07 7.76 -41.57 9.61 -3.46 0.38 -6.33 0.77 -6.40 0.84 -0.07 0.07 0.94 0.73 2.24 1.43 1.29 0.73 3.81 2.17 5.52 3.15 1.75 1.01 7.87 4.58 13.63 7.87 11.36 6.54 19.51 11.26 24.47 14.16 1.75 1.01 10.70 6.26 19.93 11.64 9.23 5.38 19.30 11.29 22.38 13.11 3.08 1.85 5.70 3.36 5.80 3.39 0.10 0 0.87 -0.91 1.64 -2.06z m22.72 -17.31 c0.07 -0.07 -1.01 -3.04 -2.38 -6.57 -4.06 -10.28 -10.91 -27.79 -18.53 -47.20 l-7.13 -18.04 -3.32 2.52 c-9.23 6.99 -15.70 11.40 -21.75 14.89 l-3.36 1.96 9.82 11.54 c5.38 6.36 15.10 17.69 21.57 25.17 6.43 7.48 12.87 15.03 14.30 16.78 l2.55 3.15 4.06 -2.03 c2.20 -1.15 4.09 -2.13 4.16 -2.17z m64.43 -6.85 c5.03 -5.66 12.66 -14.16 16.89 -18.84 4.27 -4.72 8.53 -9.44 9.47 -10.52 0.98 -1.08 3.85 -4.27 6.40 -7.06 l4.61 -5.10 -0.91 -2.59 c-2.06 -5.70 -6.22 -12.69 -10.24 -17.20 -2.90 -3.29 -5.87 -5.84 -9.79 -8.43 l-3.32 -2.20 -2.06 5.31 c-1.12 2.90 -2.73 7.10 -3.57 9.30 -0.84 2.20 -3.11 8.18 -5.07 13.29 -11.01 28.63 -19.30 50.83 -18.98 50.94 0.14 0.07 1.78 0.87 3.60 1.78 1.82 0.94 3.43 1.68 3.53 1.68 0.14 -0.03 4.37 -4.68 9.44 -10.35z m-50.06 3.46 c1.85 -0.21 3.57 -0.45 3.81 -0.52 0.31 -0.10 0.42 -9.02 0.42 -43.18 l0 -43.04 -1.29 0.21 c-0.73 0.14 -2.45 0.38 -3.85 0.56 -4.34 0.59 -11.64 2.48 -16.82 4.41 -3.64 1.33 -14.09 6.36 -15.35 7.38 l-0.73 0.63 0.80 2.10 c0.45 1.15 3.60 9.19 6.99 17.83 11.47 29.19 21.12 53.67 21.40 54.12 0.10 0.17 0.42 0.21 0.70 0.07 0.31 -0.10 2.06 -0.35 3.92 -0.56z m24.09 -0.38 c0.24 -0.63 2.48 -6.50 4.96 -13.04 2.45 -6.54 5.70 -15.03 7.17 -18.88 1.47 -3.85 3.99 -10.45 5.59 -14.68 1.61 -4.23 5.03 -13.32 7.66 -20.21 2.62 -6.89 4.75 -12.59 4.75 -12.66 0 -0.07 -1.61 -0.73 -3.57 -1.50 -9.23 -3.60 -19.23 -5.52 -30.94 -5.91 l-6.05 -0.21 0 43.35 0 43.39 1.08 0.21 c0.59 0.10 1.75 0.21 2.55 0.24 1.12 0.03 4.89 0.63 6.15 0.98 0.10 0 0.38 -0.49 0.63 -1.08z m-212.07 -55.83 c11.12 -5.24 20.14 -7.52 38.21 -9.61 18.28 -2.13 21.61 -2.66 28.67 -4.37 16.29 -3.99 27.06 -10.07 45.80 -25.73 8.08 -6.75 12.27 -10.07 15.94 -12.66 5.91 -4.13 13.43 -8.43 19.19 -11.01 l2.97 -1.33 -21.26 0 -21.26 0 -4.44 2.03 c-5.21 2.38 -9.75 5.07 -17.20 10.17 -23.88 16.36 -36.88 22.20 -59.54 26.75 -8.32 1.68 -22.97 3.36 -29.40 3.36 l-2.48 0 -2.03 4.58 c-1.12 2.52 -2.41 5.70 -2.87 7.10 -1.05 3.15 -1.99 8.46 -1.85 10.45 l0.10 1.47 3.32 0.38 c1.82 0.21 3.43 0.42 3.53 0.45 0.10 0 2.17 -0.91 4.58 -2.03z m6.05 -32.20 c11.50 -1.05 26.54 -4.13 36.36 -7.45 11.05 -3.74 20.14 -8.64 36.71 -19.72 l8.04 -5.38 -18.70 0.14 c-20.10 0.17 -21.89 0.31 -29.86 2.20 -16.08 3.85 -30.21 13.18 -38.63 25.49 -0.91 1.36 -2.03 3.04 -2.45 3.78 l-0.80 1.29 2.76 0 c1.50 0 4.47 -0.17 6.57 -0.35z"/>
  <path d="M78.07 317.55 c-1.36 -0.24 -2.20 -1.75 -2.20 -3.81 0 -3.99 0 -3.99 12.34 -3.99 9.51 0 9.96 0.03 10.87 0.73 0.80 0.63 0.91 0.94 0.91 2.97 0 2.73 -0.31 3.43 -1.78 3.95 -1.08 0.38 -18.32 0.49 -20.14 0.14z"/>
  <path d="M106.77 317.31 c-1.33 -0.59 -1.54 -1.08 -1.54 -3.71 0 -1.47 0.17 -2.24 0.66 -2.83 l0.66 -0.84 10.35 -0.10 10.35 -0.10 0.87 0.87 c0.73 0.73 0.87 1.22 0.87 2.83 0 4.20 -0.49 4.37 -12.13 4.37 -6.78 -0.03 -9.30 -0.14 -10.10 -0.49z"/>
  <path d="M68.94 298.57 c-1.64 -0.66 -2.06 -4.86 -0.66 -6.47 0.73 -0.84 0.98 -0.91 5.35 -1.12 l4.61 -0.21 0.91 0.91 c0.77 0.77 0.91 1.22 0.91 3.04 0 1.92 -0.10 2.27 -1.01 3.18 -1.01 1.01 -1.05 1.01 -5.17 0.98 -2.27 0 -4.47 -0.14 -4.93 -0.31z"/>
  <path d="M102.75 298.53 c-1.15 -0.42 -1.71 -1.64 -1.71 -3.81 0 -1.33 0.21 -1.92 0.91 -2.76 l0.91 -1.08 12.52 0 12.55 0 0.70 0.91 c1.08 1.40 1.05 4.65 -0.10 5.98 l-0.84 0.98 -12.03 0.07 c-7.10 0.03 -12.38 -0.07 -12.90 -0.28z"/>
  <path d="M148.72 298.57 c-1.26 -0.49 -1.89 -1.75 -1.89 -3.78 0 -1.61 0.14 -2.03 1.01 -2.90 l1.01 -1.01 9.30 0 c11.05 0 10.70 -0.10 10.70 3.71 0 2.73 -0.31 3.43 -1.78 3.95 -1.33 0.45 -17.24 0.49 -18.35 0.03z"/>
  <path d="M44.99 277.38 c-1.22 -0.66 -1.64 -1.75 -1.64 -4.23 0 -1.71 0.14 -2.06 1.19 -3.11 l1.19 -1.19 22.62 0 22.62 0 1.01 1.01 c0.94 0.94 1.01 1.22 1.01 3.53 0 2.31 -0.07 2.59 -1.01 3.53 l-1.01 1.01 -22.51 0 c-19.40 -0.03 -22.62 -0.10 -23.46 -0.56z"/>
  <path d="M110.44 276.93 c-0.94 -0.94 -1.01 -1.22 -1.01 -3.50 0 -2.06 0.14 -2.59 0.84 -3.43 l0.84 -0.98 28.74 -0.10 28.70 -0.10 1.01 1.05 c0.98 0.94 1.05 1.22 1.05 3.53 0 2.31 -0.07 2.59 -1.01 3.53 l-1.01 1.01 -28.56 0 -28.56 0 -1.01 -1.01z"/>
  <path d="M194.24 276.16 c-0.80 -0.63 -0.91 -0.94 -0.91 -3.08 0 -1.89 0.14 -2.59 0.73 -3.32 l0.70 -0.91 6.78 0 6.78 0 0.70 0.91 c0.56 0.70 0.73 1.43 0.73 3.01 0 1.82 -0.10 2.20 -1.01 3.11 l-1.01 1.01 -6.29 0 c-5.80 0 -6.33 -0.07 -7.20 -0.73z"/>
  <path d="M230.18 275.74 c-0.80 -0.70 -0.98 -1.19 -1.12 -2.94 -0.14 -1.82 -0.03 -2.20 0.73 -3.11 l0.87 -1.01 17.52 -0.10 c20.49 -0.14 18.91 -0.45 18.91 3.78 0 2.17 -0.10 2.59 -0.87 3.32 l-0.84 0.87 -17.13 0 -17.13 0 -0.94 -0.80z"/>
  <path d="M132.29 234.59 c-1.50 -0.59 -2.24 -2.03 -2.24 -4.34 0 -2.62 0.52 -3.71 2.10 -4.47 1.12 -0.56 2.83 -0.63 20.38 -0.63 21.01 0 21.01 0 22.06 2.06 0.35 0.63 0.56 1.92 0.56 3.22 0 1.96 -0.10 2.24 -1.19 3.32 l-1.19 1.19 -19.89 -0.03 c-10.91 0 -20.21 -0.14 -20.59 -0.31z"/>
 </g>
 <g fill="#fefefe">
  <path d="M0 179 l0 -179 42.20 0 c23.18 0 42.09 0.07 42.02 0.14 -0.07 0.10 -2.20 0.49 -4.68 0.91 -2.52 0.42 -5.24 0.94 -6.12 1.22 -0.87 0.24 -2.52 0.70 -3.67 1.01 -10.56 2.97 -23.81 9.86 -32.55 16.99 -8.04 6.61 -15.38 15.03 -20.24 23.25 -7.38 12.48 -11.36 25.77 -12.76 42.48 -0.45 5.52 -0.45 174.87 0 182.32 1.26 19.89 5.77 35.07 14.79 49.64 4.96 8.01 13.39 17.34 20.91 23.14 8.22 6.36 18.21 11.89 27.41 15.14 l4.89 1.71 -36.08 0 -36.11 0.03 0 -179z"/>
  <path d="M284.44 357.69 c0.17 -0.17 1.19 -0.56 2.24 -0.91 6.05 -1.96 15 -6.50 21.68 -11.05 23.32 -15.80 37.55 -40.55 40.59 -70.59 0.56 -5.38 0.49 -182.08 -0.03 -187.88 -2.41 -25.56 -11.15 -45.55 -26.78 -61.18 -11.68 -11.68 -26.01 -19.58 -43.18 -23.81 -2.62 -0.63 -5.52 -1.29 -6.47 -1.40 -0.94 -0.14 -1.96 -0.38 -2.24 -0.56 -0.28 -0.17 19.33 -0.31 43.63 -0.31 l44.12 0 0 179 0 179 -36.95 0 c-21.19 0 -36.81 -0.14 -36.60 -0.31z"/>
  <path d="M93.70 353.91 c-7.20 -0.56 -16.64 -2.59 -23.74 -5.10 -5.66 -1.99 -14.09 -6.29 -19.61 -9.96 -9.44 -6.29 -16.68 -13.49 -23.14 -22.97 -8.39 -12.27 -12.59 -24.33 -14.68 -42.30 -0.35 -3.04 -0.45 -22.83 -0.45 -96.14 0 -86.74 0.03 -92.58 0.63 -96.67 1.78 -12.41 5.70 -24.12 11.12 -33.07 7.69 -12.80 20 -24.16 32.83 -30.45 2.20 -1.08 4.58 -2.27 5.28 -2.62 0.70 -0.35 1.57 -0.63 1.92 -0.63 0.31 0 0.87 -0.21 1.15 -0.49 1.33 -1.15 13.43 -4.34 21.01 -5.52 2.41 -0.35 19.82 -0.45 90.02 -0.45 96.18 0 88.66 -0.17 99.11 2.13 9.65 2.17 21.43 6.99 28.84 11.92 22.17 14.65 34.23 36.81 36.88 67.75 0.45 5.70 0.49 181.97 0 186.34 -1.36 12.27 -4.16 22.10 -8.98 31.78 -8.88 17.83 -24.12 32.09 -42.58 39.93 -4.37 1.85 -8.60 3.25 -12.41 4.13 -1.43 0.31 -2.94 0.77 -3.29 0.98 -0.66 0.35 -3.18 0.70 -9.47 1.29 -2.90 0.28 -166.90 0.42 -170.43 0.14z m170.15 -11.12 c15.03 -1.96 28.11 -7.34 38.98 -15.98 13.25 -10.56 22.27 -24.89 25.94 -41.29 2.17 -9.68 2.06 -2.97 1.99 -101.11 -0.03 -57.58 -0.17 -90.79 -0.42 -93.17 -1.85 -19.12 -6.85 -33.32 -16.01 -45.27 -2.38 -3.15 -7.87 -8.67 -11.22 -11.36 -9.61 -7.66 -21.99 -12.90 -36.18 -15.28 -3.67 -0.59 -7.94 -0.63 -90.72 -0.63 l-86.88 0 -4.20 0.80 c-16.75 3.22 -29.65 9.44 -40.31 19.47 -11.71 11.01 -19.51 27.34 -21.40 44.75 -0.28 2.45 -0.35 31.81 -0.28 98.07 l0.10 94.57 0.80 4.02 c2.38 12.17 6.96 22.83 13.46 31.46 3.11 4.09 9.30 10.56 13.01 13.53 11.57 9.33 26.12 15.38 41.78 17.38 2.97 0.38 19.23 0.49 85.55 0.52 71.81 0.03 82.40 -0.03 86 -0.49z"/>
  <path d="M151.38 335.17 c0.28 -0.28 2.10 -1.15 4.02 -1.99 8.67 -3.71 19.61 -9.54 32.86 -17.48 23.77 -14.23 38.28 -18.77 69.57 -21.85 15.91 -1.57 21.01 -2.69 28.21 -6.33 6.54 -3.25 12.17 -8.92 14.65 -14.75 1.08 -2.48 2.03 -6.85 2.27 -10.38 0.31 -4.27 -0.14 -7.97 -3.18 -26.08 -3.15 -18.91 -3.39 -21.12 -3.39 -27.76 0 -15.59 2.90 -26.92 9.19 -35.83 3.08 -4.37 9.40 -10.56 9.40 -9.23 0 0.14 -0.56 1.12 -1.22 2.24 -1.96 3.22 -4.96 9.68 -6.05 13.11 -1.78 5.42 -2.59 10 -2.80 15.84 -0.21 6.57 0.28 11.22 1.89 17.48 1.64 6.54 3.99 12.24 9.82 23.95 6.71 13.53 6.54 12.90 6.29 20.70 -0.21 7.17 -0.87 10.80 -3.08 17.48 -4.20 12.62 -14.02 23.70 -26.29 29.72 -8.95 4.37 -16.43 6.15 -33.11 7.87 -26.33 2.69 -41.95 7.59 -66.81 21.01 l-5.10 2.76 -18.84 0 c-15.66 0 -18.74 -0.07 -18.32 -0.45z"/>
  <path d="M204.70 335.28 c0.63 -1.01 13.32 -6.78 20.07 -9.12 10.49 -3.64 20.21 -5.49 37.97 -7.31 16.47 -1.68 25.31 -3.92 34.79 -8.78 6.68 -3.46 14.19 -9.26 18.07 -13.98 1.08 -1.33 2.20 -2.41 2.45 -2.41 0.66 0 -3.18 7.45 -6.15 11.92 -11.22 16.89 -30.28 27.76 -52.02 29.65 -5.70 0.52 -55.48 0.52 -55.17 0.03z"/>
  <path d="M92.65 334.75 c-10.52 -1.54 -20.77 -5.03 -28.81 -9.86 -8.46 -5.07 -17.17 -13.74 -22.51 -22.34 -7.41 -11.92 -10.35 -23.67 -10.14 -40.34 l0.10 -7.52 53.70 -0.17 c51.71 -0.17 53.77 -0.21 54.43 -0.84 0.98 -0.84 1.29 -2.45 0.77 -3.74 -0.91 -2.20 2.55 -2.06 -54.36 -2.06 l-51.92 0 4.61 -5.31 c2.55 -2.94 5.24 -6.08 6.01 -6.99 l1.33 -1.68 27.58 0 27.58 0 1.12 -1.01 c0.91 -0.80 1.15 -1.29 1.15 -2.38 0 -0.77 -0.31 -1.82 -0.66 -2.34 -1.26 -1.96 -1.05 -1.96 -24.86 -1.96 -12.03 0 -21.85 -0.07 -21.85 -0.14 0 -0.07 0.73 -1.19 1.61 -2.52 1.92 -2.87 3.43 -5.73 4.68 -9.05 l0.94 -2.45 112.96 -0.10 112.96 -0.07 0.17 1.12 c0.10 0.63 0.42 3.53 0.73 6.40 0.31 2.90 0.66 5.59 0.77 6.05 l0.17 0.77 -50.55 0 c-54.54 0 -52.16 -0.07 -53.49 1.78 -0.91 1.33 -0.73 3.25 0.45 4.58 l1.01 1.15 51.85 0.17 51.85 0.17 1.15 6.64 c0.63 3.67 1.15 6.75 1.15 6.92 0 0.14 -29.40 0.24 -65.34 0.24 l-65.34 0 -1.05 0.87 c-0.59 0.49 -1.15 1.36 -1.29 1.92 -0.24 1.15 0.52 2.94 1.54 3.50 0.45 0.24 21.96 0.35 66.25 0.35 59.12 0 65.59 0.07 66.08 0.56 0.77 0.73 0.77 6.57 0 10.21 -1.43 7.13 -6.29 12.83 -13.91 16.33 -5.80 2.69 -10.21 3.60 -24.37 5.07 -15.28 1.61 -22.20 2.69 -31.22 4.93 -13.49 3.39 -25.24 8.53 -40.76 17.87 -29.02 17.48 -43.28 23.21 -62.86 25.28 -6.01 0.63 -25.07 0.66 -29.44 0z m4.51 -18.39 c1.29 -0.45 1.78 -1.22 1.78 -2.90 0 -0.87 -0.24 -1.40 -0.91 -1.92 -0.87 -0.70 -1.36 -0.73 -9.82 -0.73 -10.52 0 -11.29 0.21 -11.29 2.94 0 1.05 1.19 2.59 2.20 2.76 1.78 0.35 16.96 0.24 18.04 -0.14z m28.88 -0.10 c2.06 -0.87 2.59 -3.08 1.05 -4.61 l-0.87 -0.87 -9.30 0.10 c-9.30 0.10 -9.30 0.10 -9.96 0.94 -1.22 1.50 -0.80 3.71 0.87 4.44 1.61 0.70 16.54 0.70 18.21 0z m-48.04 -19.40 c1.33 -1.33 1.36 -2.87 0.10 -4.13 -0.87 -0.87 -0.94 -0.91 -4.44 -0.66 -3.22 0.21 -3.64 0.31 -4.34 1.12 -0.87 0.98 -0.98 1.71 -0.45 3.11 0.45 1.22 1.40 1.54 5 1.54 2.97 0.03 3.15 0 4.13 -0.98z m49.47 -0.14 c1.01 -1.19 1.08 -2.66 0.10 -3.88 l-0.70 -0.91 -11.50 0 -11.47 0 -0.91 1.08 c-0.49 0.59 -0.91 1.36 -0.91 1.71 0 1.15 0.77 2.41 1.71 2.76 0.52 0.21 5.42 0.31 11.85 0.28 l10.98 -0.07 0.84 -0.98z m38.56 0.77 c0.59 -0.21 1.26 -0.66 1.43 -1.01 0.59 -1.12 0.42 -3.08 -0.35 -3.85 -0.66 -0.66 -1.15 -0.70 -8.95 -0.70 l-8.25 0 -1.01 1.01 c-0.56 0.56 -1.01 1.40 -1.01 1.85 0 1.05 0.91 2.34 1.89 2.73 1.12 0.45 14.93 0.42 16.26 -0.03z m-75.10 -21.61 c0.80 -0.80 1.01 -1.33 1.01 -2.48 0 -1.15 -0.21 -1.68 -1.01 -2.48 l-1.01 -1.01 -21.57 0 -21.57 0 -1.19 1.19 c-1.22 1.22 -1.47 2.24 -0.84 3.85 0.73 1.96 0.38 1.92 23.70 1.96 l21.47 0 1.01 -1.01z m77.61 0 c1.43 -1.47 1.43 -3.53 -0.03 -4.96 l-1.01 -1.05 -27.65 0.10 -27.69 0.10 -0.84 0.98 c-1.22 1.43 -1.15 3.46 0.17 4.82 l1.01 1.01 27.51 0 27.51 0 1.01 -1.01z m39.16 -1.05 c1.22 -1.22 1.33 -2.69 0.28 -4.02 l-0.70 -0.91 -5.73 0 -5.73 0 -0.70 0.91 c-1.08 1.36 -0.98 3.39 0.17 4.30 0.84 0.66 1.40 0.73 6.15 0.73 l5.24 0 1.01 -1.01z m57.48 -0.21 c1.12 -1.12 1.19 -3.36 0.14 -4.41 -0.70 -0.70 -0.94 -0.70 -17.13 -0.59 l-16.47 0.10 -0.87 1.01 c-1.08 1.26 -0.91 2.80 0.45 3.99 l0.87 0.77 16.08 0 16.08 0 0.84 -0.87z m-92.26 -41.92 c1.36 -1.36 1.54 -2.69 0.63 -4.44 -1.05 -2.06 -1.15 -2.06 -21.01 -2.06 -16.54 0 -18.21 0.07 -19.33 0.63 -1.36 0.66 -2.10 1.85 -2.10 3.43 0 1.22 1.08 2.83 2.24 3.29 0.38 0.17 9.19 0.31 19.54 0.31 l18.84 0.03 1.19 -1.19z"/>
  <path d="M31.46 237.28 l0 -3.39 2.87 0 c2.66 0 2.80 0.03 2.34 0.63 -0.56 0.63 -4.44 5.28 -4.93 5.84 -0.14 0.17 -0.28 -1.22 -0.28 -3.08z"/>
  <path d="M321.54 230.32 c-4.34 -7.87 -7.45 -15.80 -9.05 -23.35 -0.63 -3.08 -0.77 -4.79 -0.80 -10.66 0 -6.57 0.07 -7.20 1.01 -10.84 0.52 -2.10 1.75 -5.80 2.69 -8.22 2.06 -5.17 6.15 -12.69 7.06 -12.87 0.56 -0.10 0.59 1.71 0.59 33.98 0 18.77 -0.07 34.12 -0.14 34.12 -0.07 0 -0.70 -0.98 -1.36 -2.17z"/>
  <path d="M31.39 219.14 c-0.42 -16.68 -0.35 -54.89 0.07 -54.75 0.52 0.17 8.36 16.19 10.17 20.84 2.48 6.36 2.87 8.29 2.87 14.40 0 4.37 -0.14 6.08 -0.77 8.85 -1.96 8.53 -5.49 14.72 -10.10 17.69 -0.94 0.59 -1.78 1.08 -1.89 1.08 -0.10 0 -0.24 -3.67 -0.35 -8.11z"/>
  <path d="M45.80 222.56 c1.26 -2.52 2.66 -5.66 3.08 -7.03 2.10 -6.71 2.97 -14.86 2.20 -20.63 -0.91 -6.92 -2.17 -10.45 -8.18 -23.25 -7.45 -15.87 -10 -22.48 -11.19 -28.84 -2.97 -15.77 2.62 -33 13.29 -41.04 8.01 -6.05 19.09 -9.19 40.48 -11.57 24.79 -2.76 34.61 -5.14 47.58 -11.54 9.89 -4.89 17.24 -10 31.46 -21.96 6.82 -5.73 12.52 -10.10 17.10 -13.11 10.66 -6.96 22.55 -12.24 33.56 -14.89 6.96 -1.68 10.38 -2.10 20.56 -2.52 19.30 -0.84 33.95 0.84 44.99 5.10 13.11 5.03 23.67 13.56 30.52 24.65 4.75 7.69 8.98 19.61 10.24 28.84 l0.21 1.75 -1.85 -2.62 c-7.27 -10.35 -15.14 -16.75 -27.34 -22.27 -12.94 -5.87 -24.89 -8.53 -40.80 -9.09 -23.88 -0.77 -43.63 4.75 -63.38 17.80 -2.34 1.57 -7.24 5.03 -10.91 7.73 -19.44 14.37 -31.57 20.49 -49.47 25.03 -9.72 2.45 -17.10 3.60 -33.21 5.10 -18.25 1.71 -24.68 3.08 -32.34 6.89 -3.95 1.99 -6.64 3.99 -9.65 7.20 -5.98 6.36 -8.53 14.72 -7.66 25.28 0.49 6.05 1.43 10.03 4.23 18.14 8.18 23.60 8.50 24.82 8.53 33.04 0 4.79 -0.10 6.05 -0.80 8.71 -1.78 6.71 -4.51 11.61 -8.98 16.15 -4.68 4.75 -5.10 4.58 -2.27 -1.05z"/>
  <path d="M65.03 203.93 c0 -0.17 -0.07 -2.87 -0.14 -6.05 -0.17 -7.83 -1.36 -12.80 -6.57 -27.37 -1.15 -3.25 -2.03 -5.94 -1.96 -6.01 0.03 -0.03 2.69 0.66 5.87 1.61 9.65 2.87 33.98 9.82 48.60 13.91 13.81 3.85 23.14 6.43 57.16 15.77 10 2.73 18.21 5 18.25 5.07 0.07 0.03 0.21 0.80 0.31 1.68 l0.24 1.64 -60.90 0 c-33.46 0 -60.87 -0.10 -60.87 -0.24z"/>
  <path d="M193.82 202.53 c-0.38 -2.66 0.10 -10.14 0.87 -13.11 4.44 -17.10 16.92 -28.39 35.83 -32.51 3.04 -0.66 4.58 -0.77 11.05 -0.77 6.40 0 8.04 0.10 11.05 0.77 6.99 1.50 12.59 3.81 18.14 7.45 3.53 2.31 9.65 8.39 12.06 11.99 4.96 7.45 7.76 16.68 7.17 23.91 -0.10 1.61 -0.31 3.15 -0.42 3.43 -0.14 0.42 -6.82 0.49 -47.83 0.49 l-47.69 0 -0.24 -1.64z"/>
  <path d="M169.74 189.14 c-8.85 -2.45 -24.72 -6.85 -35.31 -9.79 -26.92 -7.41 -80.17 -22.55 -80.48 -22.86 -0.03 -0.03 -0.42 -1.40 -0.84 -3.04 -1.05 -4.20 -1.33 -12.20 -0.52 -15.84 1.15 -5.14 4.23 -9.89 8.46 -13.08 2.76 -2.10 7.62 -4.61 8.88 -4.61 0.45 0 1.08 -0.21 1.36 -0.49 0.98 -0.80 5.63 -1.78 8.78 -1.78 2.94 0 3.08 0.03 6.99 1.96 3.85 1.89 7.27 3.78 23.60 13.15 16.92 9.72 49.78 28.77 71.53 41.50 l8.22 4.82 -1.29 3.85 c-0.73 2.10 -1.61 5.38 -1.96 7.31 -0.35 1.89 -0.77 3.46 -0.98 3.43 -0.17 0 -7.59 -2.03 -16.43 -4.51z"/>
  <path d="M291.92 177.36 c-2.73 -5.31 -5.77 -9.16 -11.36 -14.40 -1.36 -1.29 -1.92 -2.03 -1.71 -2.34 0.17 -0.21 4.58 -5.10 9.75 -10.87 5.21 -5.73 14.93 -16.54 21.61 -23.98 6.68 -7.45 12.31 -13.53 12.48 -13.53 0.21 0 0.35 7.24 0.35 19.58 l0 19.58 -0.77 0.17 c-0.45 0.10 -1.57 0.31 -2.48 0.52 -3.85 0.84 -6.96 2.90 -12.59 8.36 -5.52 5.38 -9.82 11.54 -12.52 17.93 -0.45 1.12 -0.91 2.03 -1.01 2.03 -0.10 0 -0.87 -1.36 -1.75 -3.04z"/>
  <path d="M187.04 169.14 c-3.57 -2.13 -14.02 -8.25 -23.25 -13.63 -9.23 -5.38 -18.18 -10.63 -19.93 -11.64 -4.96 -2.90 -13.11 -7.62 -24.47 -14.16 -5.77 -3.29 -11.89 -6.85 -13.63 -7.83 -1.71 -1.01 -4.89 -2.83 -7.06 -4.06 -2.17 -1.22 -3.85 -2.34 -3.74 -2.52 0.10 -0.14 0.84 -0.28 1.64 -0.28 2.31 0 13.53 -1.33 19.47 -2.31 13.11 -2.13 25.28 -5.70 35.83 -10.49 0.21 -0.07 3.67 3.74 7.69 8.46 9.58 11.29 24.16 28.28 27.09 31.60 2.52 2.83 16.43 19.19 16.43 19.33 0 0.03 -1.29 1.40 -2.90 3.04 -1.57 1.64 -3.64 4.09 -4.58 5.42 -0.94 1.36 -1.82 2.55 -1.92 2.69 -0.10 0.10 -3.11 -1.50 -6.68 -3.64z"/>
  <path d="M205.88 154.11 c-1.57 -1.99 -8.18 -9.72 -14.61 -17.20 -21.82 -25.28 -32.23 -37.69 -32.09 -38.11 0.10 -0.24 1.64 -1.29 3.46 -2.31 6.22 -3.53 9.58 -5.80 20.94 -14.23 3.22 -2.38 5.98 -4.30 6.19 -4.30 0.17 0 0.42 0.21 0.52 0.45 0.07 0.21 3.67 9.30 7.94 20.17 17.62 44.85 20.98 53.42 20.98 53.77 0 0.14 -0.77 0.56 -1.68 0.87 -0.91 0.35 -3.25 1.47 -5.14 2.52 -1.92 1.05 -3.50 1.92 -3.53 1.92 -0.03 0 -1.36 -1.61 -2.97 -3.57z"/>
  <path d="M270.42 155.75 c-1.15 -0.66 -3.11 -1.64 -4.37 -2.17 -1.26 -0.49 -2.41 -1.05 -2.55 -1.15 -0.24 -0.21 2.31 -7.10 13.74 -37.23 1.29 -3.46 3.60 -9.44 5.07 -13.29 1.47 -3.85 3.92 -10.21 5.42 -14.16 4.54 -11.92 6.36 -16.61 6.50 -16.75 0.35 -0.38 7.52 4.41 10.52 7.03 6.26 5.45 11.64 13.49 14.79 22.10 0.77 2.10 1.01 3.29 0.84 3.71 -0.28 0.56 -4.54 5.35 -15.87 17.80 -3.85 4.23 -25.91 28.88 -29.51 33 -1.15 1.29 -2.17 2.34 -2.27 2.34 -0.10 0 -1.15 -0.56 -2.31 -1.22z"/>
  <path d="M223.47 143.27 c-15.66 -39.44 -26.99 -68.52 -26.99 -69.26 0 -0.91 9.93 -5.98 16.50 -8.43 5.35 -1.99 12.76 -3.92 16.36 -4.23 1.26 -0.14 2.66 -0.35 3.15 -0.52 0.49 -0.17 1.71 -0.38 2.73 -0.49 l1.82 -0.17 -0.07 44.30 -0.10 44.30 -1.40 0.10 c-1.40 0.10 -7.06 0.98 -8.43 1.33 -0.66 0.17 -0.98 -0.45 -3.57 -6.92z"/>
  <path d="M253.64 149.81 c-1.15 -0.28 -3.11 -0.56 -4.37 -0.70 -1.26 -0.10 -2.87 -0.28 -3.57 -0.38 l-1.33 -0.21 0 -44.37 0 -44.37 4.82 0 c8.43 0 17.62 1.12 25.35 3.11 4.02 1.05 9.82 3.08 12.03 4.20 l1.12 0.56 -4.54 12.06 c-6.47 17.10 -11.01 29.16 -14.12 37.23 -1.47 3.85 -4.72 12.34 -7.17 18.88 -5.10 13.56 -5.52 14.51 -5.87 14.47 -0.14 -0.03 -1.19 -0.24 -2.34 -0.49z"/>
  <path d="M31.12 103.66 l0 -2.97 2.03 0.21 c1.08 0.14 2.03 0.28 2.06 0.28 0.03 0.03 -0.56 0.94 -1.33 1.99 -0.80 1.05 -1.61 2.24 -1.82 2.69 -0.66 1.43 -0.94 0.80 -0.94 -2.20z"/>
  <path d="M34.61 94.60 l-3.32 -0.38 -0.10 -2.55 c-0.21 -5.14 1.15 -10.52 4.72 -18.56 l2.03 -4.58 2.48 0 c6.43 0 21.08 -1.68 29.40 -3.36 22.65 -4.54 35.66 -10.38 59.54 -26.75 7.45 -5.10 11.99 -7.80 17.20 -10.17 l4.44 -2.03 24.54 0 c14.61 0 24.44 0.14 24.26 0.31 -0.21 0.17 -2.17 1.05 -4.37 1.96 -4.51 1.82 -11.15 5.24 -15.91 8.18 -6.57 4.02 -10.84 7.27 -22.03 16.64 -18.74 15.66 -29.51 21.75 -45.80 25.73 -7.06 1.71 -10.38 2.24 -28.67 4.37 -18.07 2.10 -27.09 4.37 -38.21 9.61 -4.75 2.24 -4.65 2.24 -10.21 1.57z"/>
  <path d="M38.46 60.90 c0 -0.42 4.30 -7.17 5.70 -8.95 8.98 -11.61 22.03 -19.82 37.16 -23.42 8.15 -1.92 9.54 -2.03 32.23 -2.20 11.57 -0.10 21.05 -0.03 21.01 0.10 -0.03 0.38 -17.59 11.96 -24.02 15.87 -7.76 4.72 -15.84 8.53 -23.32 11.08 -9.82 3.32 -24.86 6.40 -36.36 7.45 -4.68 0.42 -12.41 0.45 -12.41 0.07z"/>
 </g>
</svg>